# xmcd
#
# Track frame offsets:
#  150
#  20361
#  32114
#  49924
#  66630
#  87751
#  105083
#  123531
#  136176
#  156224
#  176334
#  196303
#
# Disc length: 2871 seconds
#
# Revision: 2
# Processed by: cddbd v1.5.1PL2 Copyright (c) Steve Scherf et al.
# Submitted via: Collectorz.com_Music_Collector 6.9
#
DISCID=9a0b350c
DTITLE=JIMMY BARNES - Double Happiness (Side 1- Disc 2---CD)
DYEAR=2005
DGENRE=AUSSIE ALTERNATIVE - AUSSIE ROCK
TTITLE0=Say It Ain't So - Jimmy Barnes with Rahsaan Patterson
TTITLE1=Ain't No Mountain High Enough - Jimmy Barnes with Juanita Tuippins
TTITLE2=Higher - Jimmy Barnes with Gary Pinto
TTITLE3=Settle For Me - Jimmy Barnes with EJ Barnes
TTITLE4=When Something Is Wrong With My Baby - Jimmy Barnes with John Farnham
TTITLE5=Same Woman - Jimmy BArnes with Jackie Barnes
TTITLE6=Still Got A Long Way To Go Jimmy Barnes with Diesel (Mark LIzotte)
TTITLE7=Guilty - Jimmy Barnes with Joe Cocker
TTITLE8=I'll Be There - Jimmy Barnes with Elly-May Barnes
TTITLE9=The Weight - Jimmy Barnes with The Badloves
TTITLE10=Bird On A Wire - JImmyy BArnes with Troy Cassar-Daley featuring Bella
TTITLE11=Cold, Cold Heart - Jimmy Barnes with Smoky Dawson
EXTD=
EXTT0=
EXTT1=
EXTT2=
EXTT3=
EXTT4=
EXTT5=
EXTT6=
EXTT7=
EXTT8=
EXTT9=
EXTT10=
EXTT11=
PLAYORDER=
